<?xml version="1.0" encoding="utf-8"?>
<!-- Generator: Adobe Illustrator 13.0.0, SVG Export Plug-In . SVG Version: 6.00 Build 14948)  -->
<!DOCTYPE svg PUBLIC "-//W3C//DTD SVG 1.0//EN" "http://www.w3.org/TR/2001/REC-SVG-20010904/DTD/svg10.dtd">
<svg version="1.0" id="Layer_1" xmlns="http://www.w3.org/2000/svg" xmlns:xlink="http://www.w3.org/1999/xlink" x="0px" y="0px"
	 width="410px" height="473px" viewBox="52.5 15.5 410 473" enable-background="new 52.5 15.5 410 473" xml:space="preserve">
<g>
	<path fill="#3953A4" d="M169.34,370.465"/>
	<path fill="#3953A4" d="M160.109,365.083l2.582,1.293c2.734,1.367,4.929,2.87,7.127,1.896l67.484-29.138
		c2.794-1.241,2.097-2.832-0.638-4.198l-5.35-1.845c-2.735-1.37-5.787-0.137-8.58,1.104l-62.518,26.168
		C157.421,361.6,157.374,363.716,160.109,365.083z"/>
	<path fill="#3953A4" d="M190.275,448.854l43.315-19.289c2.793-1.246,3.182-3.463,1.174-5.219l-3.596-2.951
		c-2.734-1.366-4.543-0.501-7.334,0.742l-40.291,17.83c-1.993,0.942-6.21,1.199-8.309-0.464c-1.355-0.678-6.691,3.473-6.183,7.115
		c0.406,2.907,6.822,5.502,9.868,5.502C183.903,452.123,190.275,448.854,190.275,448.854z"/>
	<path fill="#3953A4" d="M161.964,430.875l6.786,4c2.735,1.364,3.375-0.941,3.375-4l-4.379-58.334c0-3.057-2.227-3.414-4.962-4.781
		l-3.169-1.584c-2.734-1.369-4.95,0.002-4.95,3.059l4.531,54.027C159.197,426.32,159.428,429.768,161.964,430.875z"/>
	<path fill="#3953A4" d="M239,340.75l-66.264,28.324c-2.795,1.242-3.384,1.775-3.397,5.521l4.39,58.566
		c0,3.058,1.315,7.338,9.943,4.144l58.549-26.024c2.797-1.241,5.062-4.723,5.062-7.78l-3.223-59.465
		C244.061,340.979,241.796,339.507,239,340.75z M240.305,399.156c0,3.058-2.265,6.544-5.062,7.784l-48.365,21.054
		c-2.795,1.243-5.059-0.23-5.059-3.285l-4.378-44.425c0-3.056,2.265-6.544,5.059-7.784l50-21c2.794-1.243,5.061,0.23,5.061,3.285
		L240.305,399.156L240.305,399.156z"/>
</g>
<g>
	<path fill="#00AC6C" d="M304.833,436.835l-16.708-12.84c-2.848-1.647-7.604-1.923-10.622-0.611l-73.179,31.783
		c-3.02,1.309-3.155,6.079-0.322,7.755l16.027,12.607c2.832,1.678,7.564,1.954,10.574,0.615l12.654-5.626l60.452-26.864
		C306.718,442.318,307.683,439.316,304.833,436.835z M297.438,442.279l-57.455,25.844l-8.793,3.87
		c-2.582,1.146-6.642,0.907-9.068-0.527l-11.033-9.01c-2.429-1.438-2.312-5.529,0.275-6.651l66.312-29.106
		c2.591-1.125,6.671-0.893,9.114,0.523l11.613,9.205C300.844,438.558,300.018,441.133,297.438,442.279z"/>
	<path fill="#00AC6C" d="M218.01,475.889c-2.158-2.228-13.284-10.8-14.797-11.321c-1.464-0.504-3.166,2.246-1.278,3.837
		c1.887,1.59,13.817,8.455,15.195,8.903C217.971,477.578,218.805,476.709,218.01,475.889z"/>
	<path fill="#00AC6C" d="M213.604,456.895l1.064-0.445c1.214-0.51,2.865-0.385,3.688,0.271c0.824,0.659,0.517,1.625-0.687,2.162
		l-1.009,0.446c-1.203,0.534-2.866,0.413-3.719-0.272C212.096,458.368,212.393,457.401,213.604,456.895z"/>
	<path fill="#00AC6C" d="M221.055,453.542l1.062-0.444c1.215-0.509,2.863-0.388,3.689,0.272c0.821,0.658,0.514,1.623-0.688,2.159
		l-1.011,0.445c-1.2,0.537-2.865,0.416-3.717-0.271C219.543,455.016,219.84,454.051,221.055,453.542z"/>
	<path fill="#00AC6C" d="M228.874,449.743l1.065-0.445c1.213-0.508,2.865-0.387,3.688,0.271c0.821,0.659,0.514,1.623-0.689,2.157
		l-1.006,0.448c-1.203,0.535-2.867,0.414-3.72-0.271C227.363,451.219,227.66,450.249,228.874,449.743z"/>
	<path fill="#00AC6C" d="M236.396,446.764l1.064-0.443c1.214-0.513,2.863-0.388,3.688,0.271c0.824,0.659,0.516,1.624-0.687,2.158
		l-1.009,0.449c-1.203,0.535-2.866,0.413-3.719-0.272C234.887,448.239,235.184,447.271,236.396,446.764z"/>
	<path fill="#00AC6C" d="M244.518,443.485l1.063-0.443c1.214-0.511,2.862-0.387,3.688,0.269c0.821,0.66,0.515,1.628-0.688,2.16
		l-1.008,0.449c-1.202,0.534-2.865,0.413-3.718-0.271C243.006,444.963,243.302,443.995,244.518,443.485z"/>
	<path fill="#00AC6C" d="M251.965,440.135l1.062-0.443c1.216-0.511,2.867-0.389,3.689,0.271c0.824,0.658,0.516,1.625-0.688,2.162
		l-1.006,0.446c-1.203,0.532-2.866,0.41-3.717-0.275C250.456,441.61,250.75,440.644,251.965,440.135z"/>
	<path fill="#00AC6C" d="M259.787,436.335l1.064-0.446c1.213-0.507,2.864-0.383,3.688,0.275c0.822,0.656,0.514,1.623-0.688,2.16
		l-1.009,0.445c-1.2,0.535-2.866,0.413-3.718-0.271C258.275,437.812,258.57,436.844,259.787,436.335z"/>
	<path fill="#00AC6C" d="M267.312,433.356l1.062-0.445c1.214-0.508,2.864-0.387,3.688,0.272c0.824,0.657,0.515,1.622-0.688,2.16
		l-1.009,0.447c-1.198,0.534-2.866,0.412-3.716-0.272C265.801,434.832,266.094,433.862,267.312,433.356z"/>
	<path fill="#00AC6C" d="M275.354,429.854l1.063-0.443c1.215-0.509,2.866-0.385,3.688,0.271c0.824,0.658,0.515,1.627-0.688,2.163
		l-1.008,0.447c-1.2,0.533-2.864,0.412-3.717-0.272C273.844,431.333,274.141,430.36,275.354,429.854z"/>
	<path fill="#00AC6C" d="M221.15,458.879l1.064-0.447c1.212-0.508,2.867-0.382,3.689,0.273c0.824,0.66,0.515,1.625-0.69,2.16
		l-1.006,0.448c-1.202,0.532-2.866,0.411-3.717-0.273C219.643,460.354,219.938,459.388,221.15,458.879z"/>
	<path fill="#00AC6C" d="M228.6,455.526l1.066-0.444c1.212-0.509,2.865-0.385,3.688,0.271c0.824,0.66,0.516,1.628-0.688,2.163
		l-1.007,0.447c-1.202,0.535-2.867,0.412-3.718-0.272C227.091,457.004,227.387,456.036,228.6,455.526z"/>
	<path fill="#00AC6C" d="M236.422,451.727l1.064-0.442c1.215-0.507,2.867-0.386,3.688,0.271c0.824,0.659,0.514,1.625-0.688,2.161
		l-1.006,0.446c-1.205,0.536-2.869,0.412-3.719-0.274C234.911,453.203,235.207,452.236,236.422,451.727z"/>
	<path fill="#00AC6C" d="M243.943,448.751l1.065-0.445c1.216-0.511,2.867-0.387,3.689,0.271c0.821,0.659,0.514,1.625-0.688,2.161
		l-1.008,0.446c-1.203,0.536-2.867,0.412-3.717-0.271C242.434,450.224,242.73,449.257,243.943,448.751z"/>
	<path fill="#00AC6C" d="M252.064,445.471l1.063-0.442c1.214-0.507,2.866-0.389,3.688,0.271c0.822,0.658,0.514,1.625-0.688,2.161
		l-1.006,0.443c-1.202,0.537-2.869,0.417-3.718-0.269C250.553,446.95,250.85,445.978,252.064,445.471z"/>
	<path fill="#00AC6C" d="M259.514,442.119l1.062-0.445c1.215-0.508,2.865-0.387,3.689,0.271c0.823,0.66,0.516,1.627-0.688,2.162
		l-1.006,0.445c-1.204,0.533-2.868,0.415-3.721-0.271C258.003,443.597,258.299,442.627,259.514,442.119z"/>
	<path fill="#00AC6C" d="M267.334,438.322l1.064-0.447c1.213-0.507,2.863-0.385,3.688,0.274c0.825,0.657,0.517,1.625-0.688,2.158
		l-1.006,0.447c-1.201,0.533-2.865,0.412-3.717-0.272C265.823,439.797,266.12,438.829,267.334,438.322z"/>
	<path fill="#00AC6C" d="M274.855,435.341l1.063-0.444c1.214-0.507,2.865-0.386,3.688,0.272c0.826,0.659,0.517,1.625-0.688,2.161
		l-1.006,0.446c-1.203,0.533-2.868,0.412-3.717-0.274C273.348,436.816,273.643,435.847,274.855,435.341z"/>
	<path fill="#00AC6C" d="M282.902,431.841l1.063-0.443c1.214-0.507,2.865-0.388,3.688,0.271c0.824,0.659,0.514,1.625-0.688,2.161
		l-1.005,0.446c-1.201,0.534-2.867,0.415-3.718-0.271C281.393,433.315,281.688,432.348,282.902,431.841z"/>
	<path fill="#00AC6C" d="M221.055,464.241l1.063-0.442c1.216-0.509,2.864-0.387,3.69,0.271c0.819,0.657,0.514,1.627-0.689,2.161
		l-1.008,0.443c-1.201,0.536-2.865,0.416-3.717-0.268C219.543,465.719,219.84,464.75,221.055,464.241z"/>
	<path fill="#00AC6C" d="M228.502,460.891l1.064-0.443c1.217-0.51,2.867-0.388,3.689,0.271c0.82,0.66,0.514,1.625-0.689,2.158
		l-1.006,0.448c-1.203,0.533-2.867,0.414-3.719-0.271C226.991,462.367,227.287,461.397,228.502,460.891z"/>
	<path fill="#00AC6C" d="M236.325,457.092l1.063-0.443c1.213-0.51,2.863-0.389,3.688,0.271c0.822,0.658,0.516,1.625-0.689,2.158
		l-1.006,0.447c-1.203,0.535-2.867,0.414-3.718-0.272C234.812,458.567,235.107,457.598,236.325,457.092z"/>
	<path fill="#00AC6C" d="M243.85,454.11l1.062-0.444c1.216-0.507,2.864-0.385,3.69,0.274c0.821,0.657,0.514,1.625-0.689,2.161
		l-1.005,0.443c-1.202,0.534-2.865,0.413-3.718-0.271C242.338,455.588,242.631,454.619,243.85,454.11z"/>
	<path fill="#00AC6C" d="M251.967,450.836l1.062-0.444c1.217-0.509,2.865-0.388,3.691,0.271c0.821,0.659,0.514,1.625-0.691,2.161
		l-1.004,0.446c-1.201,0.534-2.865,0.413-3.719-0.274C250.454,452.31,250.75,451.342,251.967,450.836z"/>
	<path fill="#00AC6C" d="M259.414,447.483l1.062-0.444c1.215-0.509,2.865-0.388,3.689,0.271c0.822,0.658,0.516,1.626-0.688,2.161
		l-1.008,0.446c-1.201,0.536-2.867,0.415-3.717-0.271C257.902,448.959,258.2,447.99,259.414,447.483z"/>
	<path fill="#00AC6C" d="M267.234,443.688l1.063-0.444c1.216-0.515,2.863-0.391,3.688,0.268c0.822,0.662,0.516,1.627-0.688,2.161
		l-1.006,0.449c-1.203,0.535-2.866,0.412-3.721-0.273C265.727,445.16,266.021,444.193,267.234,443.688z"/>
	<path fill="#00AC6C" d="M274.758,440.705l1.062-0.445c1.218-0.511,2.865-0.387,3.691,0.27c0.821,0.66,0.514,1.626-0.688,2.161
		l-1.007,0.448c-1.203,0.536-2.865,0.413-3.719-0.271C273.248,442.181,273.543,441.211,274.758,440.705z"/>
	<path fill="#00AC6C" d="M282.805,437.204l1.062-0.445c1.215-0.509,2.863-0.388,3.691,0.272c0.819,0.658,0.514,1.625-0.689,2.161
		l-1.008,0.446c-1.201,0.536-2.866,0.41-3.717-0.274C281.293,438.68,281.589,437.71,282.805,437.204z"/>
	<path fill="#00AC6C" d="M226.018,467.321l1.065-0.445c1.215-0.508,2.866-0.387,3.688,0.271c0.824,0.658,0.517,1.628-0.688,2.16
		l-1.006,0.45c-1.203,0.533-2.869,0.412-3.717-0.274C224.509,468.797,224.807,467.827,226.018,467.321z"/>
	<path fill="#00AC6C" d="M233.466,463.969l1.065-0.443c1.214-0.512,2.865-0.386,3.688,0.271c0.824,0.66,0.516,1.625-0.688,2.158
		l-1.006,0.451c-1.205,0.534-2.868,0.41-3.717-0.275C231.957,465.444,232.253,464.478,233.466,463.969z"/>
	<path fill="#00AC6C" d="M242.307,460.967l32.44-14.721c1.215-0.509,2.862-0.388,3.69,0.271c0.819,0.658,0.514,1.625-0.689,2.161
		L245.361,463.4c-1.201,0.535-2.865,0.409-3.715-0.272C240.796,462.442,241.09,461.473,242.307,460.967z"/>
	<path fill="#00AC6C" d="M282.207,443.086l1.064-0.446c1.213-0.51,2.863-0.384,3.688,0.271c0.821,0.659,0.515,1.625-0.688,2.161
		l-1.004,0.446c-1.203,0.536-2.867,0.415-3.721-0.271C280.697,444.564,280.994,443.595,282.207,443.086z"/>
	<path fill="#00AC6C" d="M290.15,439.488l1.064-0.444c1.215-0.514,2.863-0.388,3.691,0.269c0.82,0.659,0.514,1.628-0.689,2.162
		l-1.008,0.447c-1.201,0.537-2.867,0.41-3.718-0.273C288.643,440.962,288.938,439.995,290.15,439.488z"/>
</g>
<path fill="none" stroke="#3953A4" stroke-width="3.6259" stroke-linecap="round" d="M249.555,282.441v13.252
	c0,2.505-0.971,5.14-3.971,6.724L203.5,324c-2.192,1.209-3.968,4.219-3.968,6.723v7.736"/>
<path fill="none" stroke="#00AC6C" stroke-width="3.6259" stroke-linecap="round" d="M283.747,417l-0.271-83.311
	c-0.009-2.504-1.623-5.771-3.607-7.295l-16.734-13.256c-1.982-1.525-5.027-3.97-4.803-8.123L258.182,283"/>
<path fill="none" stroke="#B477AE" stroke-width="3.6259" stroke-linecap="round" d="M267.501,282.663v16.123
	c0,2.502,1.601,5.78,3.571,7.321l43.037,34.254c1.976,1.539,3.573,4.816,3.573,7.32L317.623,394"/>
<g>
	<path fill="#A7A9AC" d="M153.346,270.416v-77.339c0-2.503-1.857-3.714-4.147-2.705l-27.757,12.232
		c-2.29,1.01-4.146,3.857-4.146,6.36v77.339c0,2.502,1.856,3.713,4.146,2.703l27.757-12.23
		C151.489,275.768,153.346,272.918,153.346,270.416z"/>
	<path fill="#A7A9AC" d="M68.19,180.937l43.284,21.642c2.238,1.12,4.053,4.056,4.053,6.56v74.559c0,2.502-1.815,3.625-4.053,2.506
		L68.19,264.561c-2.239-1.119-4.054-4.057-4.054-6.559v-74.56C64.137,180.939,65.952,179.817,68.19,180.937z"/>
	<path fill="#A7A9AC" d="M69.021,179.275l43.283,21.642c2.24,1.12,5.912,1.21,8.203,0.202l25.697-11.306
		c2.291-1.008,2.333-2.733,0.094-3.853l-43.283-21.642c-2.239-1.12-5.912-1.21-8.203-0.202l-25.696,11.307
		C66.824,176.431,66.783,178.155,69.021,179.275z"/>
	
		<line fill="none" stroke="#FFFFFF" stroke-width="2.4032" stroke-linecap="round" x1="145.547" y1="206.208" x2="126.964" y2="214.366"/>
	
		<line fill="none" stroke="#FFFFFF" stroke-width="2.4032" stroke-linecap="round" x1="146.34" y1="210.966" x2="142.488" y2="212.666"/>
	<g>
		<circle fill="#FFFFFF" cx="78.059" cy="203.374" r="2.129"/>
		<circle fill="#FFFFFF" cx="78.211" cy="197.761" r="2.129"/>
		<circle fill="#FFFFFF" cx="72.773" cy="200.174" r="2.13"/>
		<circle fill="#FFFFFF" cx="72.646" cy="205.886" r="2.129"/>
		<circle fill="#FFFFFF" cx="77.606" cy="209.266" r="2.129"/>
		<circle fill="#FFFFFF" cx="83.498" cy="206.772" r="2.129"/>
		<circle fill="#FFFFFF" cx="83.751" cy="201.14" r="2.129"/>
	</g>
	<circle fill="#FFFFFF" cx="142.675" cy="238.882" r="7.492"/>
	<circle fill="#CE4522" cx="142.675" cy="238.882" r="5.092"/>
</g>
<g>
	<path fill="#A7A9AC" d="M294.607,133.084V55.745c0-2.503-1.857-3.714-4.148-2.704l-27.756,12.232
		c-2.291,1.009-4.146,3.857-4.146,6.36v77.339c0,2.503,1.855,3.714,4.146,2.705l27.756-12.232
		C292.75,138.435,294.607,135.587,294.607,133.084z"/>
	<path fill="#A7A9AC" d="M209.451,43.604l43.283,21.642c2.24,1.119,4.055,4.056,4.055,6.559v74.559c0,2.503-1.814,3.625-4.055,2.506
		l-43.283-21.642c-2.238-1.119-4.054-4.056-4.054-6.559V46.11C205.397,43.607,207.213,42.485,209.451,43.604z"/>
	<path fill="#A7A9AC" d="M210.283,41.943l43.283,21.642c2.238,1.12,5.912,1.21,8.203,0.202l25.693-11.307
		c2.291-1.008,2.334-2.732,0.096-3.852l-43.283-21.642c-2.239-1.12-5.911-1.21-8.202-0.202L210.376,38.09
		C208.085,39.099,208.043,40.823,210.283,41.943z"/>
	
		<line fill="none" stroke="#FFFFFF" stroke-width="2.4032" stroke-linecap="round" x1="286.809" y1="68.875" x2="268.227" y2="77.034"/>
	
		<line fill="none" stroke="#FFFFFF" stroke-width="2.4032" stroke-linecap="round" x1="287.602" y1="73.634" x2="283.749" y2="75.334"/>
	<g>
		<circle fill="#FFFFFF" cx="219.32" cy="66.041" r="2.129"/>
		<circle fill="#FFFFFF" cx="219.473" cy="60.429" r="2.129"/>
		<circle fill="#FFFFFF" cx="214.034" cy="62.842" r="2.129"/>
		<circle fill="#FFFFFF" cx="213.907" cy="68.554" r="2.129"/>
		<circle fill="#FFFFFF" cx="218.867" cy="71.933" r="2.129"/>
		<circle fill="#FFFFFF" cx="224.759" cy="69.44" r="2.129"/>
		<circle fill="#FFFFFF" cx="225.012" cy="63.808" r="2.129"/>
	</g>
	<circle fill="#FFFFFF" cx="284.691" cy="98.528" r="7.492"/>
	<circle fill="#CE4522" cx="284.689" cy="98.528" r="5.092"/>
</g>
<g>
	<path fill="#A7A9AC" d="M451.88,274.801v-77.339c0-2.503-1.854-3.714-4.146-2.704l-27.76,12.232
		c-2.29,1.01-4.146,3.857-4.146,6.361v77.338c0,2.504,1.854,3.715,4.146,2.705l27.76-12.231
		C450.022,280.152,451.88,277.305,451.88,274.801z"/>
	<path fill="#A7A9AC" d="M366.725,185.322l43.283,21.642c2.238,1.119,4.054,4.056,4.054,6.559v74.557
		c0,2.504-1.812,3.627-4.054,2.508l-43.283-21.643c-2.236-1.119-4.054-4.057-4.054-6.559v-74.562
		C362.671,185.325,364.485,184.203,366.725,185.322z"/>
	<path fill="#A7A9AC" d="M367.556,183.66l43.282,21.642c2.24,1.12,5.912,1.209,8.203,0.202l25.696-11.307
		c2.291-1.008,2.334-2.732,0.095-3.852l-43.283-21.642c-2.239-1.119-5.912-1.209-8.203-0.201l-25.692,11.306
		C365.358,180.816,365.316,182.541,367.556,183.66z"/>
	
		<line fill="none" stroke="#FFFFFF" stroke-width="2.4032" stroke-linecap="round" x1="444.081" y1="210.592" x2="425.498" y2="218.751"/>
	
		<line fill="none" stroke="#FFFFFF" stroke-width="2.4032" stroke-linecap="round" x1="444.874" y1="215.352" x2="441.021" y2="217.051"/>
	<circle fill="#FFFFFF" cx="440.456" cy="243.717" r="8.625"/>
	<circle fill="#77C044" cx="440.456" cy="243.717" r="5.092"/>
	<g>
		<circle fill="#FFFFFF" cx="376.593" cy="207.758" r="2.129"/>
		<circle fill="#FFFFFF" cx="376.746" cy="202.146" r="2.129"/>
		<circle fill="#FFFFFF" cx="371.307" cy="204.559" r="2.13"/>
		<circle fill="#FFFFFF" cx="371.181" cy="210.271" r="2.129"/>
		<circle fill="#FFFFFF" cx="376.14" cy="213.65" r="2.129"/>
		<circle fill="#FFFFFF" cx="382.032" cy="211.158" r="2.129"/>
		<circle fill="#FFFFFF" cx="382.285" cy="205.525" r="2.129"/>
	</g>
</g>
<g>
	
		<line fill="none" stroke="#3953A4" stroke-width="3.6259" stroke-linecap="round" x1="207.641" y1="223.658" x2="157.482" y2="223.658"/>
	
		<line fill="none" stroke="#00AC6C" stroke-width="3.6259" stroke-linecap="round" x1="207.641" y1="232.723" x2="157.482" y2="232.723"/>
	
		<line fill="none" stroke="#B477AE" stroke-width="3.6259" stroke-linecap="round" x1="207.641" y1="241.184" x2="157.482" y2="241.184"/>
</g>
<g>
	
		<line fill="none" stroke="#3953A4" stroke-width="3.6259" stroke-linecap="round" x1="357.816" y1="223.659" x2="307.657" y2="223.659"/>
	
		<line fill="none" stroke="#00AC6C" stroke-width="3.6259" stroke-linecap="round" x1="357.816" y1="232.724" x2="307.657" y2="232.724"/>
	
		<line fill="none" stroke="#B477AE" stroke-width="3.6259" stroke-linecap="round" x1="357.816" y1="241.186" x2="307.657" y2="241.186"/>
</g>
<line fill="none" stroke="#3953A4" stroke-width="3.6259" stroke-linecap="round" x1="265.656" y1="185.132" x2="265.656" y2="155.75"/>
<line fill="none" stroke="#00AC6C" stroke-width="3.6259" stroke-linecap="round" x1="256.592" y1="185.132" x2="256.592" y2="155.75"/>
<line fill="none" stroke="#B477AE" stroke-width="3.6259" stroke-linecap="round" x1="248.131" y1="185.132" x2="248.131" y2="155.75"/>
<path fill="#67686B" d="M258.404,189.362c-24.531,0-44.418,19.887-44.418,44.418c0,24.533,19.887,44.418,44.418,44.418
	s44.418-19.888,44.418-44.418S282.936,189.362,258.404,189.362z M258.404,272.759c-21.527,0-38.979-17.45-38.979-38.979
	c0-21.527,17.452-38.979,38.979-38.979s38.979,17.452,38.979,38.979C297.383,255.309,279.932,272.759,258.404,272.759z"/>
<g>
	<circle fill="#B477AE" cx="248.434" cy="203.625" r="3.021"/>
	<circle fill="#00AC6C" cx="257.046" cy="203.625" r="3.021"/>
	<circle fill="#3953A4" cx="265.355" cy="203.625" r="3.021"/>
</g>
<g>
	<circle fill="#B477AE" cx="228.58" cy="240.73" r="3.021"/>
	<circle fill="#00AC6C" cx="228.58" cy="232.118" r="3.021"/>
	<circle fill="#3953A4" cx="228.58" cy="223.809" r="3.021"/>
</g>
<g>
	<circle fill="#B477AE" cx="290.255" cy="241.143" r="3.021"/>
	<circle fill="#00AC6C" cx="290.255" cy="232.531" r="3.021"/>
	<circle fill="#3953A4" cx="290.255" cy="224.222" r="3.021"/>
</g>
<path fill="none" stroke="#B477AE" stroke-width="3.8728" stroke-linecap="round" d="M268.032,267.167v-4.049
	c-0.704-10.452,4.2-18.801,13.525-19.666"/>
<path fill="none" stroke="#00AC6C" stroke-width="3.6259" stroke-linecap="round" d="M258.514,267.812v-4.694
	c-0.597-15.618,7.191-28.458,22.711-29.524"/>
<path fill="none" stroke="#3953A4" stroke-width="3.6259" stroke-linecap="round" d="M249.602,267.625l-0.113-4.174
	c-1.008-22.88,10.948-38.718,31.67-39.249"/>
<g>
	<path fill="#B477AE" d="M325.728,403.976l-5.646-3.641c-0.438-0.28-1.176-0.331-1.647-0.112l-7.973,4.123
		c-0.473,0.219-0.519,0.647-0.103,0.961c1.818,1.363,5.353,3.907,7.567,5.45c0.426,0.297,0.982,0.16,1.296-0.255
		c1.282-1.694,3.724-3.653,6.511-5.504C326.165,404.711,326.165,404.256,325.728,403.976z"/>
	<path fill="#B477AE" d="M336.423,399.444c-2.869-1.661-5.233-3.023-6.521-3.613c-0.474-0.218-1.237-0.215-1.708,0.007l-6.285,2.74
		c-0.472,0.222-0.495,0.626-0.057,0.902l5.778,3.645c0.439,0.277,1.153,0.28,1.601,0.014c2.896-1.731,4.804-2.471,7.129-3.093
		C336.862,399.912,336.873,399.705,336.423,399.444z"/>
	<path fill="#B477AE" d="M340.417,402.251c-0.496-0.158-1.245-0.323-1.312-0.339c-0.041-0.01-0.082-0.021-0.121-0.031
		c-0.176-0.057-0.403-0.088-0.683-0.088c-2.172-0.021-6.726,2.033-10.773,4.59c-4.063,2.524-7.729,5.661-8.312,7.351
		c0,0-0.045,0.118-0.098,0.266c-0.055,0.146-0.207,0.2-0.342,0.121l-0.242-0.144c-1.485-0.879-6.936-4.887-9.271-6.614
		c-0.419-0.311-0.726-0.142-0.688,0.378l0.369,2.415c0.039,0.519,0.367,1.237,0.738,1.602c2.064,2.017,8.522,9.151,15.931,14.006
		c6.641,4.352,16.26,4.81,23.931-1.718c7.672-6.526,2.614-16.812-5.295-20.459C343.124,403.065,342.251,402.835,340.417,402.251z"/>
</g>
</svg>
